<svg height="512" viewBox="0 0 24 24" width="512" xmlns="http://www.w3.org/2000/svg"><g id="_13" data-name="13"><path d="m3 17.5 6-11 4 7 3-3 5 7z" fill="#80ed99"/><path d="m21 18.5h-18a.99976.99976 0 0 1 -.87793-1.47852l6-11a.99974.99974 0 0 1 1.74609-.01757l3.35059 5.86328 2.07425-2.07419a1.01237 1.01237 0 0 1 .78906-.29 1.00151 1.00151 0 0 1 .73145.416l5 7a.99918.99918 0 0 1 -.81351 1.581zm-16.31543-2h14.37207l-3.18457-4.458-2.165 2.165a.99963.99963 0 0 1 -1.57519-.21094l-3.11137-5.44528z" fill="#22577a"/></g></svg>